<svg width="17" height="17" viewBox="0 0 17 17" fill="none" xmlns="http://www.w3.org/2000/svg">
<path fill-rule="evenodd" clip-rule="evenodd" d="M4.64238 6.46391C4.76093 6.34536 4.95314 6.34536 5.0717 6.46391L8.4999 9.89211L11.9281 6.46391C12.0466 6.34536 12.2389 6.34536 12.3574 6.46391C12.476 6.58247 12.476 6.77468 12.3574 6.89323L8.71455 10.5361C8.596 10.6546 8.40379 10.6546 8.28524 10.5361L4.64238 6.89323C4.52383 6.77468 4.52383 6.58247 4.64238 6.46391Z" fill="#FFF"/>
<path fill-rule="evenodd" clip-rule="evenodd" d="M4.53523 6.35658C4.71305 6.17875 5.00137 6.17875 5.1792 6.35658L8.50007 9.67745L11.8209 6.35658L11.9278 6.46345L11.8209 6.35658C11.9988 6.17875 12.2871 6.17875 12.4649 6.35658L12.3577 6.46383L12.4649 6.35658C12.6427 6.5344 12.6427 6.82272 12.4649 7.00055L8.82206 10.6434C8.64423 10.8212 8.35591 10.8212 8.17808 10.6434L4.53523 7.00055C4.3574 6.82272 4.3574 6.5344 4.53523 6.35658ZM4.96454 6.57123C4.90527 6.51196 4.80916 6.51196 4.74988 6.57123C4.69061 6.63051 4.69061 6.72662 4.74988 6.78589L8.39274 10.4287C8.45202 10.488 8.54812 10.488 8.6074 10.4287L12.2503 6.78589C12.3095 6.72662 12.3095 6.63051 12.2503 6.57123C12.191 6.51196 12.0949 6.51196 12.0356 6.57123L8.6074 9.99943C8.57893 10.0279 8.54033 10.0439 8.50007 10.0439C8.45981 10.0439 8.42121 10.0279 8.39274 9.99943L4.96454 6.57123Z" fill="#FFF"/>
</svg>