<svg width="24" height="24" viewBox="0 0 24 24" fill="none" xmlns="http://www.w3.org/2000/svg">
<g id="Icon/24px/instagram" clip-path="url(#clip0_2422_61990)">
<path id="Vector" d="M17 2H7C4.23858 2 2 4.23858 2 7V17C2 19.7614 4.23858 22 7 22H17C19.7614 22 22 19.7614 22 17V7C22 4.23858 19.7614 2 17 2Z" stroke="#E5E5E6" stroke-width="1.5" stroke-linecap="round" stroke-linejoin="round"/>
<path id="Vector_2" d="M16 11.3703C16.1234 12.2025 15.9813 13.0525 15.5938 13.7993C15.2063 14.5461 14.5932 15.1517 13.8416 15.53C13.0901 15.9082 12.2385 16.0399 11.4078 15.9062C10.5771 15.7726 9.80977 15.3804 9.21485 14.7855C8.61993 14.1905 8.22774 13.4232 8.09408 12.5925C7.96042 11.7619 8.09208 10.9102 8.47034 10.1587C8.8486 9.40716 9.4542 8.79404 10.201 8.40654C10.9478 8.01904 11.7978 7.87689 12.63 8.0003C13.4789 8.12619 14.2649 8.52176 14.8717 9.12861C15.4785 9.73545 15.8741 10.5214 16 11.3703Z" stroke="#E5E5E6" stroke-width="1.5" stroke-linecap="round" stroke-linejoin="round"/>
<path id="Vector_3" d="M19.4838 5.77998C19.5301 6.09207 19.4767 6.41081 19.3314 6.69085C19.1861 6.9709 18.9562 7.198 18.6744 7.33985C18.3926 7.4817 18.0732 7.53107 17.7617 7.48095C17.4502 7.43082 17.1624 7.28375 16.9393 7.06066C16.7162 6.83756 16.5692 6.5498 16.5191 6.2383C16.4689 5.92681 16.5183 5.60744 16.6601 5.32562C16.802 5.0438 17.0291 4.81388 17.3091 4.66857C17.5892 4.52325 17.9079 4.46995 18.22 4.51623C18.5384 4.56343 18.8331 4.71177 19.0607 4.93934C19.2882 5.16691 19.4366 5.46163 19.4838 5.77998Z" fill="#E5E5E6"/>
</g>
<defs>
<clipPath id="clip0_2422_61990">
<rect width="24" height="24" fill="white"/>
</clipPath>
</defs>
</svg>
