<svg width="24" height="24" viewBox="0 0 24 24" fill="none" xmlns="http://www.w3.org/2000/svg">
<g id="Icon/24px/tiktok">
<path id="Vector" d="M18.9995 10.5613C17.6233 10.5646 16.2809 10.1355 15.1619 9.33448V14.9209C15.1616 15.9556 14.8453 16.9654 14.2555 17.8155C13.6657 18.6656 12.8304 19.3154 11.8613 19.6779C10.8922 20.0404 9.83557 20.0985 8.83262 19.8443C7.82967 19.59 6.92823 19.0357 6.24884 18.2553C5.56945 17.475 5.14449 16.5058 5.03078 15.4774C4.91707 14.449 5.12004 13.4104 5.61254 12.5005C6.10504 11.5905 6.8636 10.8527 7.78679 10.3855C8.70998 9.91831 9.75379 9.74411 10.7787 9.88618V12.696C10.3097 12.5484 9.80607 12.5529 9.33977 12.7086C8.87346 12.8644 8.4683 13.1635 8.18215 13.5633C7.89599 13.9631 7.74347 14.4431 7.74636 14.9347C7.74926 15.4263 7.90742 15.9044 8.19827 16.3008C8.48912 16.6972 8.89777 16.9915 9.36588 17.1418C9.83399 17.2921 10.3376 17.2906 10.8048 17.1375C11.272 16.9845 11.6789 16.6878 11.9674 16.2897C12.2559 15.8916 12.4113 15.4125 12.4113 14.9209V4H15.1619C15.16 4.23229 15.1795 4.46426 15.2201 4.69299C15.3157 5.20358 15.5144 5.68931 15.8042 6.12045C16.0939 6.5516 16.4685 6.91911 16.9052 7.2005C17.5264 7.61126 18.2547 7.83019 18.9995 7.83003V10.5613Z" fill="#E5E5E6"/>
</g>
</svg>
